<?xml version="1.0" encoding="UTF-8"?>
<svg xmlns="http://www.w3.org/2000/svg" xmlns:xlink="http://www.w3.org/1999/xlink" viewBox="0 0 96 96" width="96px" height="96px">
<g id="surface37267803">
<rect x="0" y="0" width="96" height="96" style="fill:rgb(3.921569%,9.803922%,18.431373%);fill-opacity:1;stroke:none;"/>
<path style=" stroke:none;fill-rule:nonzero;fill:rgb(100%,100%,100%);fill-opacity:1;" d="M 12 12 L 12 84 L 84 84 L 84 12 Z M 54.664062 49.804688 L 46.191406 49.804688 L 46.191406 76 L 39.363281 76 L 39.363281 49.804688 L 31.066406 49.804688 L 31.066406 44 L 54.664062 44 Z M 55.992188 74.503906 L 55.992188 67.5 C 55.992188 67.5 59.816406 70.382812 64.40625 70.382812 C 69 70.382812 68.820312 67.382812 68.820312 66.972656 C 68.820312 62.617188 55.816406 62.617188 55.816406 52.96875 C 55.816406 39.84375 74.765625 45.023438 74.765625 45.023438 L 74.527344 51.261719 C 74.527344 51.261719 71.351562 49.140625 67.761719 49.140625 C 64.171875 49.140625 62.875 50.847656 62.875 52.671875 C 62.875 57.378906 76 56.90625 76 66.382812 C 76 80.976562 55.992188 74.503906 55.992188 74.503906 Z M 55.992188 74.503906 "/>
</g>
</svg>
